<svg version="1.1" preserveAspectRatio="none" xmlns="http://www.w3.org/2000/svg" width="500" height="500" viewBox="0 0 500 500"><rect width="100%" height="100%" fill="#FFFFFF" fill-opacity="1"/><svg viewBox="589.8707 413.3982 360.6629 263.4588" width="333" height="243.2514694469545" x="83.5px" y="128.3743px" xmlns="http://www.w3.org/2000/svg" xmlns:xlink="http://www.w3.org/1999/xlink" preserveAspectRatio="none"><defs></defs><style>.companyName {fill:#0000FF;fill-opacity:1;}.icon1 {fill:#0000FF;fill-opacity:1;}.icon2 {fill:#A9FF94;fill-opacity:1;}.icon3 {fill:#000084;fill-opacity:1;}.icon3-str {stroke:#000084;stroke-opacity:1;}</style><g opacity="1" transform="rotate(0 589.8707 596.857)">
<svg width="360.6629" height="80" x="589.8707" y="596.857" version="1.1" preserveAspectRatio="none" viewBox="2.76 -28.48 130.56 28.96">
  <g transform="matrix(1 0 0 1 0 0)" class="companyName"><path id="id-D6z1nYkh4" d="M18.32-21.52L24.56-21.52L24.56 0L18.64 0L18.64-2.56Q17.40-1.16 15.68-0.42Q13.96 0.32 11.96 0.32L11.96 0.32Q7.72 0.32 5.24-2.12Q2.76-4.56 2.76-9.36L2.76-9.36L2.76-21.52L9-21.52L9-10.28Q9-5.08 13.36-5.08L13.36-5.08Q15.60-5.08 16.96-6.54Q18.32-8 18.32-10.88L18.32-10.88L18.32-21.52Z M48.28 0.48Q44 0.48 40.54-1.38Q37.08-3.24 35.10-6.54Q33.12-9.84 33.12-14L33.12-14Q33.12-18.16 35.10-21.46Q37.08-24.76 40.54-26.62Q44-28.48 48.32-28.48L48.32-28.48Q51.96-28.48 54.90-27.20Q57.84-25.92 59.84-23.52L59.84-23.52L55.68-19.68Q52.84-22.96 48.64-22.96L48.64-22.96Q46.04-22.96 44-21.82Q41.96-20.68 40.82-18.64Q39.68-16.60 39.68-14L39.68-14Q39.68-11.40 40.82-9.36Q41.96-7.32 44-6.18Q46.04-5.04 48.64-5.04L48.64-5.04Q52.84-5.04 55.68-8.36L55.68-8.36L59.84-4.52Q57.84-2.08 54.88-0.80Q51.92 0.48 48.28 0.48L48.28 0.48Z M93.08 0L86.12 0L80.72-7.80L80.40-7.80L74.76-7.80L74.76 0L68.28 0L68.28-28L80.40-28Q84.12-28 86.86-26.76Q89.60-25.52 91.08-23.24Q92.56-20.96 92.56-17.84L92.56-17.84Q92.56-14.72 91.06-12.46Q89.56-10.20 86.80-9L86.80-9L93.08 0ZM86-17.84Q86-20.20 84.48-21.46Q82.96-22.72 80.04-22.72L80.04-22.72L74.76-22.72L74.76-12.96L80.04-12.96Q82.96-12.96 84.48-14.24Q86-15.52 86-17.84L86-17.84Z M133.32 0L127.24 0L127.20-16.80L118.96-2.96L116.04-2.96L107.84-16.44L107.84 0L101.76 0L101.76-28L107.12-28L117.60-10.60L127.92-28L133.24-28L133.32 0Z"/></g>
</svg>
</g><g opacity="1" transform="rotate(0 698.0696 413.3982)">
<svg width="144.2652" height="143.4588" x="698.0696" y="413.3982" version="1.1" preserveAspectRatio="none" viewBox="21.522775650024414 22 156.9772186279297 156.09999084472656">
  <g transform="matrix(1 0 0 1 0 0)"><g><path d="M178.4 147.1l-1.2.1v-.7l-3.6.5c.4 2.9-.5 5.9-2.7 8l-1.5 1.5L136 123l1.5-1.5c1.9-1.9 4.1-2.9 6.5-3.1 2.3-.1 4.6.8 6.4 2.5l20.6 20.7c1.3 1.3 2.3 3.1 2.7 5.1l3.6-.7c-.5-2.7-1.7-5.1-3.6-6.9L153 118.4c-2.5-2.5-5.7-3.7-9-3.6s-6.4 1.6-8.9 4.1l-8.6 8.7 2.4 2.4-2.8-1.9c-2.9 2.9-7.3 4.1-11 2.9-9.8-5.3-18.7-12.2-26.7-20-6.9-6.9-13.3-15.4-18.6-24.4-1.9-4-.9-9.1 2.4-12.6l9-9.1c5-5.1 4.9-13.6-.3-18.8L61 26.1c-2.1-2.1-5-3.5-8.1-3.7h-.8V26h.4c2.3.1 4.4 1.1 6 2.8l19.9 20c3.7 3.7 3.9 10 .3 13.6l-1.5 1.5-33.6-34 1.5-1.5c1.7-1.7 4.2-2.8 6.6-2.8V22c-3.5 0-6.8 1.3-9.2 3.9L27.4 41c-4.8 4.8-6.9 11.6-5.4 18.2 6 29.1 20.3 55.6 41.3 76.7 21.5 21.6 48.6 36.1 78.2 41.8 1.2.3 2.4.4 3.7.4 5.2 0 10.4-2.1 14.1-5.9l14.3-14.4c2.7-2.7 3.9-6.1 3.7-9.9l1.2-.1-.1-.7zm-21.8 22.4c-3.9 3.9-9.3 5.6-14.5 4.5-28.9-5.5-55.4-19.6-76.3-40.7-20.4-20.6-34.4-46.5-40.2-74.9-1.1-5.3.5-11 4.5-14.8l11-11.1 33.5 33.7-5.3 5.3c-5 5.3-5.7 13.4-1.6 18.8 5.2 8.5 11.3 16.6 17.8 23.1 8.2 8.3 17.7 15.4 27.9 20.8l.9-1.7-.5 1.9c1.3.4 2.7.7 4.1.7 3.9 0 7.8-1.6 10.8-4.5l.4-.4 4.5-4.5 33.5 33.7-10.5 10.1z" data-color="1" class="icon1"></path></g></g>
</svg>
</g></svg></svg>